<?xml version="1.0" encoding="utf-8"?>
<!-- Generator: Adobe Illustrator 27.9.1, SVG Export Plug-In . SVG Version: 6.00 Build 0)  -->
<svg version="1.1" id="Layer_1" xmlns="http://www.w3.org/2000/svg" xmlns:xlink="http://www.w3.org/1999/xlink" x="0px" y="0px"
	 viewBox="0 0 165.38 84.58" style="enable-background:new 0 0 165.38 84.58;" xml:space="preserve">
<style type="text/css">
	.st0{fill:#FFFFFF;}
	.st1{fill-rule:evenodd;clip-rule:evenodd;fill:#FFFFFF;}
	.st2{fill-rule:evenodd;clip-rule:evenodd;}
</style>
<g>
	<path d="M102.75,62.38c0.69,0,1.26-0.56,1.26-1.26c0-0.69-0.56-1.26-1.26-1.26h-5.48c-0.69,0-1.26,0.56-1.26,1.26
		c0,0.69,0.56,1.26,1.26,1.26H102.75z"/>
	<path d="M86.27,59.86h-5.48c-0.69,0-1.26,0.56-1.26,1.26c0,0.69,0.56,1.26,1.26,1.26h5.48c0.69,0,1.26-0.56,1.26-1.26
		C87.53,60.43,86.96,59.86,86.27,59.86z"/>
	<path d="M102.75,45.93c0.69,0,1.26-0.56,1.26-1.26c0-0.69-0.56-1.26-1.26-1.26h-5.48c-0.69,0-1.26,0.56-1.26,1.26
		c0,0.69,0.56,1.26,1.26,1.26H102.75z"/>
	<path d="M86.27,43.41h-5.48c-0.69,0-1.26,0.56-1.26,1.26c0,0.69,0.56,1.26,1.26,1.26h5.48c0.69,0,1.26-0.56,1.26-1.26
		C87.53,43.97,86.96,43.41,86.27,43.41z"/>
	<path d="M69.81,45.93c0.69,0,1.26-0.56,1.26-1.26c0-0.69-0.56-1.26-1.26-1.26h-5.48c-0.69,0-1.26,0.56-1.26,1.26
		c0,0.69,0.56,1.26,1.26,1.26H69.81z"/>
	<path d="M49.36,25.46v38.33c0,6.76,5.5,12.26,12.26,12.26h43.84c6.76,0,12.26-5.5,12.26-12.26V25.46c0-6.76-5.5-12.26-12.26-12.26
		h-4.2V8.97c0-0.69-0.56-1.26-1.26-1.26c-0.69,0-1.26,0.56-1.26,1.26v4.23H68.33V8.97c0-0.69-0.56-1.26-1.26-1.26
		c-0.69,0-1.26,0.56-1.26,1.26v4.23h-4.2C54.86,13.2,49.36,18.7,49.36,25.46z M115.21,63.79c0,5.37-4.37,9.74-9.74,9.74H61.62
		c-5.37,0-9.74-4.37-9.74-9.74V32.17h63.33V63.79z M67.07,23.94c0.69,0,1.26-0.56,1.26-1.26v-6.97h30.43v6.97
		c0,0.69,0.56,1.26,1.26,1.26c0.69,0,1.26-0.56,1.26-1.26v-6.97h4.2c5.37,0,9.74,4.37,9.74,9.74v4.2H51.88v-4.2
		c0-5.37,4.37-9.74,9.74-9.74h4.2v6.97C65.82,23.38,66.38,23.94,67.07,23.94z"/>
	<path d="M69.81,62.38c0.69,0,1.26-0.56,1.26-1.26c0-0.69-0.56-1.26-1.26-1.26h-5.48c-0.69,0-1.26,0.56-1.26,1.26
		c0,0.69,0.56,1.26,1.26,1.26H69.81z"/>
</g>
</svg>
